#!OML:ASF I:\Actors\actors\Patient Classification 1\Patient 1\Session 1\Subject1.ASF
:FULLY-SPECIFIED
:DEGREES
767
root 0.695732 17.6293 8.73868 8.30327 0.58329 -2.32995
lowerback 13.4552 -9.14786 6.33936
upperback 1.40412 -10.73 6.64446
thorax -5.80352 -5.33259 5.53999
lowerneck -18.0232 -6.72717 -5.08869
upperneck 30.3408 -8.1022 -0.604929
head 13.4275 -4.24473 -0.742468
rclavicle 8.38871e-014 -1.1291e-013
rhumerus -39.2917 35.5071 -85.0057
rradius 54.8094
rwrist 48.7693
rhand -35.4614 -35.8908
rfingers 7.12502
rthumb -8.59006 -65.6961
lclavicle 8.38871e-014 -1.1291e-013
lhumerus -19.1413 -80.6434 124.083
lradius 26.7861
lwrist -4.14919
lhand -20.8554 -26.884
lfingers 7.12502
lthumb 5.514 3.02422
rfemur -11.8844 21.0008 16.8557
rtibia 14.181
rfoot -13.4042 -22.8644
rtoes -1.91812
lfemur -0.634015 -30.1704 -14.906
ltibia -3.23203
lfoot -10.7629 35.8561
ltoes -5.68532
768
root 0.702004 17.6317 8.71812 8.53335 0.201241 -2.18669
lowerback 13.8916 -9.16501 6.43706
upperback 1.45386 -10.6803 6.75954
thorax -5.98434 -5.30437 5.67636
lowerneck -18.0302 -6.60178 -5.02323
upperneck 30.0606 -7.87966 -0.751713
head 13.2943 -4.16095 -0.763425
rclavicle -1.0297e-013 3.81667e-014
rhumerus -38.3863 35.7516 -84.7195
rradius 54.2733
rwrist 49.5295
rhand -35.7982 -36.2808
rfingers 7.12502
rthumb -8.91506 -66.0725
lclavicle -1.0297e-013 3.81667e-014
lhumerus -15.9731 -78.899 121.253
lradius 25.8566
lwrist -4.61164
lhand -20.1934 -26.9516
lfingers 7.12502
lthumb 6.15309 2.93908
rfemur -12.3418 21.1225 16.4879
rtibia 14.241
rfoot -13.2296 -22.6737
rtoes -2.20927
lfemur -0.992245 -29.8608 -14.9144
ltibia -3.15565
lfoot -10.8321 35.8781
ltoes -5.41081
769
root 0.708212 17.6347 8.69974 8.81451 -0.168739 -2.0506
lowerback 14.1625 -9.15038 6.61464
upperback 1.56059 -10.6002 6.8476
thorax -6.03423 -5.26475 5.69899
lowerneck -18.1255 -6.52721 -4.83889
upperneck 29.7501 -7.7191 -1.03342
head 13.1568 -4.10736 -0.868483
rclavicle 7.15625e-014 2.22639e-014
rhumerus -37.631 36.2616 -84.5788
rradius 53.7708
rwrist 49.7676
rhand -36.3258 -36.9856
rfingers 7.12502
rthumb -9.42417 -66.7549
lclavicle 7.15625e-014 2.22639e-014
lhumerus -13.7829 -77.5321 119.309
lradius 25.0465
lwrist -5.91213
lhand -20.4504 -27.276
lfingers 7.12502
lthumb 5.905 2.62172
rfemur -12.8491 21.2692 16.1075
rtibia 14.3077
rfoot -13.1405 -22.516
rtoes -2.16776
lfemur -1.33228 -29.7401 -14.9161
ltibia -3.16202
lfoot -10.7506 36.0545
ltoes -5.42428
770
root 0.715118 17.6376 8.68326 9.176 -0.461157 -1.93218
lowerback 14.2234 -9.1314 6.88455
upperback 1.70206 -10.5273 6.93688
thorax -5.94784 -5.23252 5.63345
lowerneck -18.2094 -6.46834 -4.58827
upperneck 29.3503 -7.58719 -1.36147
head 12.9765 -4.06502 -1.00287
rclavicle 5.4467e-014 -4.21423e-014
rhumerus -36.9405 36.855 -84.4423
rradius 53.3432
rwrist 50.0748
rhand -36.7463 -38.1478
rfingers 7.12502
rthumb -9.82986 -67.8984
lclavicle 5.4467e-014 -4.21423e-014
lhumerus -12.0576 -76.7223 117.775
lradius 24.4489
lwrist -6.96591
lhand -20.9314 -27.3661
lfingers 7.12502
lthumb 5.44059 2.54403
rfemur -13.4294 21.3386 15.708
rtibia 14.3308
rfoot -13.0565 -22.3784
rtoes -2.11861
lfemur -1.7356 -29.9925 -14.8758
ltibia -3.18326
lfoot -10.9525 36.4835
ltoes -4.77196
771
root 0.72101 17.6408 8.66869 9.49897 -0.692375 -1.76468
lowerback 14.3512 -9.15394 7.00017
upperback 1.78612 -10.5191 7.07425
thorax -5.92014 -5.22878 5.7308
lowerneck -18.3545 -6.40807 -4.70095
upperneck 29.3348 -7.46559 -1.32119
head 13.0066 -4.01657 -0.954041
rclavicle -1.17681e-013 1.41535e-013
rhumerus -36.3349 37.4146 -84.177
rradius 53.0786
rwrist 50.4875
rhand -36.6571 -38.0279
rfingers 7.12502
rthumb -9.74379 -67.7825
lclavicle -1.17681e-013 1.41535e-013
lhumerus -10.4924 -75.4245 116.52
lradius 23.8993
lwrist -7.83601
lhand -20.5754 -27.627
lfingers 7.12502
lthumb 5.78432 2.27405
rfemur -13.924 21.4715 15.2793
rtibia 14.3094
rfoot -12.9813 -22.3541
rtoes -2.08034
lfemur -2.07051 -30.3908 -14.9169
ltibia -3.25204
lfoot -11.2832 37.0187
ltoes -3.87152
772
root 0.726155 17.6437 8.65647 9.73367 -0.902091 -1.56991
lowerback 14.6241 -9.20943 6.9144
upperback 1.82451 -10.562 7.27514
thorax -5.96984 -5.24605 6.04249
lowerneck -18.2457 -6.25881 -4.54153
upperneck 29.0821 -7.18864 -1.67653
head 12.8514 -3.92753 -1.05679
rclavicle -3.81667e-014 1.39944e-013
rhumerus -35.8056 38.0755 -83.8382
rradius 52.9254
rwrist 50.5489
rhand -36.3736 -37.2206
rfingers 7.12502
rthumb -9.47033 -66.9878
lclavicle -3.81667e-014 1.39944e-013
lhumerus -9.1928 -73.7573 115.646
lradius 23.3962
lwrist -8.1281
lhand -19.7506 -27.729
lfingers 7.12502
lthumb 6.58054 2.14879
rfemur -14.2946 21.649 14.8693
rtibia 14.2882
rfoot -12.857 -22.376
rtoes -2.01546
lfemur -2.32137 -30.417 -15.0112
ltibia -3.35966
lfoot -11.2912 37.2294
ltoes -3.67157
773
root 0.732333 17.6454 8.64422 9.94819 -1.07324 -1.42279
lowerback 14.8378 -9.20605 7.2946
upperback 1.83944 -10.4645 7.24311
thorax -6.1471 -5.19959 5.83195
lowerneck -18.1995 -6.2601 -4.4685
upperneck 29.1668 -7.22312 -1.66572
head 12.8736 -3.933 -1.07086
rclavicle -6.95746e-014 7.31528e-014
rhumerus -35.5563 38.0512 -83.7385
rradius 52.816
rwrist 50.6067
rhand -36.2327 -36.7835
rfingers 7.12502
rthumb -9.33431 -66.5569
lclavicle -6.95746e-014 7.31528e-014
lhumerus -9.54813 -74.0581 116.048
lradius 23.3735
lwrist -6.29293
lhand -19.7587 -27.2069
lfingers 7.12502
lthumb 6.57273 2.67106
rfemur -14.6753 21.7189 14.5198
rtibia 14.3309
rfoot -12.7111 -22.3335
rtoes -2.10377
lfemur -2.61113 -30.2224 -15.0354
ltibia -3.41934
lfoot -11.1699 37.2132
ltoes -3.85916
774
root 0.737568 17.6472 8.63175 10.1499 -1.17907 -1.27503
lowerback 14.9391 -9.24857 7.3007
upperback 1.9703 -10.5055 7.42063
thorax -6.02441 -5.21943 6.02794
lowerneck -18.0095 -6.14798 -4.23254
upperneck 28.7659 -7.03127 -2.00472
head 12.6415 -3.86994 -1.18561
rclavicle 5.56597e-014 2.8625e-014
rhumerus -34.9961 38.5536 -83.33
rradius 52.767
rwrist 50.2477
rhand -36.006 -36.3901
rfingers 7.12502
rthumb -9.11557 -66.1731
lclavicle 5.56597e-014 2.8625e-014
lhumerus -8.04952 -72.5138 115.002
lradius 22.9521
lwrist -8.13763
lhand -18.3362 -27.5082
lfingers 7.12502
lthumb 7.94582 2.32248
rfemur -15.0547 21.7727 14.179
rtibia 14.425
rfoot -12.6913 -22.3353
rtoes -2.22696
lfemur -2.92144 -30.1482 -15.0622
ltibia -3.40109
lfoot -11.1873 37.2074
ltoes -3.83074
775
root 0.741522 17.6499 8.62177 10.2974 -1.23577 -1.0987
lowerback 15.0282 -9.29962 7.23076
upperback 2.12074 -10.5736 7.6179
thorax -5.85475 -5.25248 6.2849
lowerneck -18.0389 -6.11093 -4.3262
upperneck 28.711 -6.91932 -2.08601
head 12.6259 -3.84085 -1.18224
rclavicle 5.88403e-014 -3.81667e-014
rhumerus -34.4057 39.1395 -82.8299
rradius 52.7699
rwrist 49.6631
rhand -35.7562 -35.9858
rfingers 7.12502
rthumb -8.87453 -65.7792
lclavicle 5.88403e-014 -3.81667e-014
lhumerus -7.36325 -73.0357 114.595
lradius 23.0224
lwrist -5.79212
lhand -17.2519 -27.1435
lfingers 7.12502
lthumb 8.99223 2.64483
rfemur -15.3303 21.8198 13.8477
rtibia 14.4972
rfoot -12.7329 -22.3815
rtoes -2.2908
lfemur -3.15027 -30.1812 -15.1699
ltibia -3.3645
lfoot -11.291 37.2134
ltoes -3.45412
776
root 0.746056 17.652 8.61315 10.4643 -1.27271 -0.89097
lowerback 15.1664 -9.36093 7.19853
upperback 2.18167 -10.6357 7.78122
thorax -5.82167 -5.28175 6.50707
lowerneck -17.9991 -6.02618 -4.2698
upperneck 28.7418 -6.75259 -2.30176
head 12.6173 -3.79095 -1.24521
rclavicle -2.3059e-014 -3.02153e-014
rhumerus -34.0273 39.6302 -82.378
rradius 52.8685
rwrist 49.3663
rhand -35.6239 -35.6375
rfingers 7.12502
rthumb -8.74684 -65.4363
lclavicle -2.3059e-014 -3.02153e-014
lhumerus -6.82858 -72.6643 114.448
lradius 22.9175
lwrist -5.40991
lhand -16.3493 -27.0155
lfingers 7.12502
lthumb 9.86313 2.73348
rfemur -15.6419 21.7699 13.4766
rtibia 14.6127
rfoot -12.7566 -22.3717
rtoes -2.33382
lfemur -3.39818 -30.2783 -15.309
ltibia -3.33305
lfoot -11.4698 37.2859
ltoes -2.9268
777
root 0.750293 17.652 8.60416 10.6653 -1.29551 -0.684609
lowerback 15.2986 -9.43305 7.11958
upperback 2.18486 -10.715 7.96711
thorax -5.83353 -5.31883 6.78842
lowerneck -17.7242 -5.98977 -4.39739
upperneck 28.5236 -6.65755 -2.35566
head 12.4764 -3.77097 -1.21199
rclavicle -5.56597e-015 1.74931e-014
rhumerus -33.7436 40.1011 -81.9031
rradius 53.0723
rwrist 49.4681
rhand -35.4061 -35.8872
rfingers 7.12502
rthumb -8.5367 -65.6946
lclavicle -5.56597e-015 1.74931e-014
lhumerus -6.54615 -72.3873 114.508
lradius 22.8511
lwrist -5.3138
lhand -16.672 -26.9253
lfingers 7.12502
lthumb 9.55181 2.83815
rfemur -16.0289 21.7775 13.0838
rtibia 14.7937
rfoot -12.8224 -22.4148
rtoes -2.24864
lfemur -3.71811 -30.2563 -15.401
ltibia -3.30302
lfoot -11.5844 37.2978
ltoes -2.69658
778
root 0.754122 17.652 8.59494 10.7863 -1.31553 -0.525426
lowerback 15.4761 -9.49422 7.07118
upperback 2.20873 -10.7711 8.13427
thorax -5.85695 -5.34455 7.03594
lowerneck -17.4542 -5.92139 -4.43326
upperneck 28.4167 -6.56409 -2.36034
head 12.379 -3.73544 -1.17941
rclavicle 7.95139e-016 0
rhumerus -33.3906 40.3814 -81.3811
rradius 53.2808
rwrist 49.5916
rhand -35.0317 -36.4005
rfingers 7.12502
rthumb -8.17532 -66.2223
lclavicle 7.95139e-016 0
lhumerus -6.50332 -72.0766 114.782
lradius 22.8646
lwrist -5.32909
lhand -16.8458 -26.6444
lfingers 7.12502
lthumb 9.38413 3.12672
rfemur -16.3063 21.8505 12.7833
rtibia 14.9463
rfoot -12.8877 -22.4898
rtoes -2.19544
lfemur -3.92859 -30.0642 -15.4756
ltibia -3.33391
lfoot -11.4786 37.1662
ltoes -2.80734
